<svg width="16" height="17" viewBox="0 0 16 17" fill="none" xmlns="http://www.w3.org/2000/svg">
<path d="M4.87733 2.31215C5.71749 1.47199 6.85698 1 8.04514 1C9.2333 1 10.3728 1.47199 11.213 2.31215C12.0531 3.15231 12.5251 4.29181 12.5251 5.47997C12.5251 6.62712 12.7522 7.49954 13.0737 8.15801C13.3079 8.63763 13.8528 8.82641 14.3286 9.06825C15.3775 9.60137 15.2491 11.0695 14.5124 11.6143C14.5124 11.6143 13.4068 12.5714 8.04514 12.5714C2.68348 12.5714 1.57786 11.6143 1.57786 11.6143C0.841136 11.0695 0.712784 9.60137 1.76168 9.06825C2.23749 8.82641 2.78237 8.63763 3.01657 8.15801C3.33809 7.49954 3.56518 6.62712 3.56518 5.47997C3.56518 4.29181 4.03717 3.15231 4.87733 2.31215Z" stroke="black" stroke-width="1.5" stroke-linecap="round" stroke-linejoin="round"/>
<path d="M6.46094 15.0889C6.78603 15.695 7.42569 16.1072 8.16162 16.1072C8.89756 16.1072 9.53722 15.695 9.86231 15.0889" stroke="black" stroke-width="1.5" stroke-linecap="round" stroke-linejoin="round"/>
</svg>
