<svg width="14" height="14" viewBox="0 0 14 14" fill="none" xmlns="http://www.w3.org/2000/svg">
<path d="M10.9383 2.1848C11.4417 2.23532 11.8364 2.5685 11.9352 3.06465C12.0813 3.79903 12.25 5.14353 12.25 7.43746C12.25 9.73139 12.0813 11.0759 11.9352 11.8103C11.8364 12.3064 11.4417 12.6396 10.9383 12.6901C10.2535 12.7589 9.04073 12.8333 7 12.8333C4.95927 12.8333 3.74655 12.7589 3.06165 12.6901C2.5583 12.6396 2.16355 12.3064 2.06482 11.8103C1.91869 11.0759 1.75 9.73139 1.75 7.43746C1.75 5.14353 1.91869 3.79903 2.06482 3.06465C2.16355 2.5685 2.5583 2.23532 3.06165 2.1848C3.74655 2.11606 4.95927 2.04163 7 2.04163C9.04073 2.04163 10.2535 2.11606 10.9383 2.1848Z" fill="#A6CFFF"/>
<path fill-rule="evenodd" clip-rule="evenodd" d="M8.49181 1.18089C9.00214 1.19128 9.38717 1.64177 9.32738 2.1487L9.2591 2.72745C9.20715 3.16801 8.83373 3.49996 8.39013 3.49996H5.61134C5.16774 3.49996 4.79432 3.16801 4.74238 2.72745L4.6741 2.1487C4.61431 1.64178 4.99933 1.19128 5.50966 1.18089C5.95308 1.17186 6.44839 1.16663 7.00084 1.16663C7.55323 1.16663 8.04845 1.17186 8.49181 1.18089Z" fill="#1575E5"/>
<path d="M4.08398 9.47917C4.08398 9.06098 4.35162 8.75321 4.76978 8.75015C4.78396 8.75006 4.79842 8.75 4.81315 8.75C4.82788 8.75 4.84235 8.75006 4.85652 8.75015C5.27468 8.75321 5.54232 9.06098 5.54232 9.47917C5.54232 9.89736 5.27468 10.2051 4.85652 10.2082C4.84235 10.2083 4.82788 10.2083 4.81315 10.2083C4.79842 10.2083 4.78396 10.2083 4.76978 10.2082C4.35162 10.2051 4.08398 9.89736 4.08398 9.47917Z" fill="#1575E5"/>
<path d="M6.42252 9.23303C6.43754 8.96965 6.63964 8.79425 6.90278 8.7754C7.09685 8.76152 7.36688 8.75 7.72852 8.75C8.09015 8.75 8.36018 8.76152 8.55425 8.7754C8.81739 8.79425 9.01949 8.96965 9.03451 9.23303C9.03854 9.30364 9.04102 9.38522 9.04102 9.47917C9.04102 9.57311 9.03854 9.65469 9.03451 9.7253C9.01949 9.98868 8.81739 10.1641 8.55425 10.1829C8.36018 10.1968 8.09015 10.2083 7.72852 10.2083C7.36688 10.2083 7.09685 10.1968 6.90278 10.1829C6.63964 10.1641 6.43754 9.98868 6.42252 9.7253C6.4185 9.65469 6.41602 9.57311 6.41602 9.47917C6.41602 9.38522 6.4185 9.30364 6.42252 9.23303Z" fill="#1575E5"/>
<path d="M4.08398 6.56254C4.08398 6.14435 4.35162 5.83658 4.76978 5.83352C4.78396 5.83343 4.79842 5.83337 4.81315 5.83337C4.82788 5.83337 4.84235 5.83343 4.85652 5.83352C5.27468 5.83658 5.54232 6.14435 5.54232 6.56254C5.54232 6.98073 5.27468 7.2885 4.85652 7.29156C4.84235 7.29165 4.82788 7.29171 4.81315 7.29171C4.79842 7.29171 4.78396 7.29165 4.76978 7.29156C4.35162 7.2885 4.08398 6.98073 4.08398 6.56254Z" fill="#1575E5"/>
<path d="M6.4283 6.27385C6.45084 6.03279 6.64914 5.88611 6.89067 5.86942C7.15256 5.85134 7.5641 5.83337 8.16602 5.83337C8.76793 5.83337 9.17947 5.85134 9.44136 5.86942C9.68289 5.88611 9.88119 6.03279 9.90374 6.27385C9.9112 6.35368 9.91602 6.44911 9.91602 6.56254C9.91602 6.67597 9.9112 6.7714 9.90374 6.85123C9.88119 7.09229 9.68289 7.23897 9.44136 7.25566C9.17947 7.27374 8.76793 7.29171 8.16602 7.29171C7.5641 7.29171 7.15256 7.27374 6.89067 7.25566C6.64914 7.23897 6.45084 7.09229 6.4283 6.85123C6.42083 6.7714 6.41602 6.67597 6.41602 6.56254C6.41602 6.44911 6.42083 6.35368 6.4283 6.27385Z" fill="#1575E5"/>
</svg>
