<svg width="14" height="14" viewBox="0 0 14 14" fill="none" xmlns="http://www.w3.org/2000/svg">
<path d="M0.959867 10.2685C1.114 11.7092 2.2727 12.8679 3.71266 13.0284C4.78221 13.1476 5.88037 13.25 7 13.25C8.11963 13.25 9.21779 13.1476 10.2873 13.0284C11.7273 12.8679 12.886 11.7092 13.0401 10.2685C13.1539 9.20502 13.25 8.11315 13.25 7C13.25 5.88684 13.1539 4.79498 13.0401 3.73147C12.886 2.29082 11.7273 1.13211 10.2873 0.971609C9.21779 0.852392 8.11963 0.75 7 0.75C5.88037 0.75 4.78221 0.852392 3.71266 0.971609C2.2727 1.13211 1.114 2.29082 0.959867 3.73147C0.846083 4.79498 0.75 5.88684 0.75 7C0.75 8.11315 0.846084 9.20502 0.959867 10.2685Z" fill="#DADADA" fill-opacity="0.2"/>
<path d="M3.32081 5.95558C3.36986 6.43604 3.75796 6.82429 4.23819 6.87553C4.52094 6.9057 4.81025 6.92981 5.10461 6.92981C5.39898 6.92981 5.68829 6.9057 5.97104 6.87553C6.45127 6.82429 6.83936 6.43604 6.88842 5.95558C6.91711 5.67463 6.9397 5.38718 6.9397 5.09473C6.9397 4.80227 6.91711 4.51483 6.88842 4.23387C6.83936 3.75341 6.45127 3.36517 5.97104 3.31392C5.68829 3.28375 5.39898 3.25964 5.10461 3.25964C4.81025 3.25964 4.52094 3.28375 4.23819 3.31392C3.75796 3.36517 3.36986 3.75341 3.32081 4.23387C3.29212 4.51483 3.26953 4.80227 3.26953 5.09473C3.26953 5.38718 3.29212 5.67463 3.32081 5.95558Z" fill="#666A72" fill-opacity="0.3" stroke="#666A72" stroke-width="1.5"/>
<path d="M10.0137 0.94165C10.3845 0.981598 10.752 1.02442 11.1159 1.06659C12.0754 1.1778 12.841 1.94289 12.9488 2.90277C12.9894 3.26431 13.0303 3.62945 13.0683 3.99788" stroke="#666A72" stroke-width="1.5" stroke-linecap="round"/>
<path d="M10.0137 13.0562C10.3845 13.0162 10.752 12.9734 11.1159 12.9312C12.0754 12.82 12.841 12.0549 12.9488 11.095C12.9894 10.7335 13.0303 10.3684 13.0683 9.99992" stroke="#666A72" stroke-width="1.5" stroke-linecap="round"/>
<path d="M4 0.94165C3.62915 0.981598 3.26164 1.02442 2.89776 1.06659C1.93827 1.1778 1.17267 1.94289 1.06491 2.90277C1.02432 3.26431 0.983393 3.62945 0.945352 3.99788" stroke="#666A72" stroke-width="1.5" stroke-linecap="round"/>
<path d="M4 13.0562C3.62915 13.0162 3.26164 12.9734 2.89776 12.9312C1.93827 12.82 1.17267 12.0549 1.06491 11.095C1.02432 10.7335 0.983393 10.3684 0.945352 9.99992" stroke="#666A72" stroke-width="1.5" stroke-linecap="round"/>
<path d="M3.60547 9.21228L3.60547 10.7404L5.10547 10.7404" stroke="#666A72" stroke-width="1.5" stroke-linecap="round" stroke-linejoin="round"/>
<path d="M10.7031 10.7404L10.7031 9.21225L9.20313 9.21225" stroke="#666A72" stroke-width="1.5" stroke-linecap="round" stroke-linejoin="round"/>
<path d="M10.7305 6.97632L9.23047 6.97632" stroke="#666A72" stroke-width="1.5" stroke-linecap="round" stroke-linejoin="round"/>
<path d="M6.93945 10.7263L6.93945 9.22632" stroke="#666A72" stroke-width="1.5" stroke-linecap="round" stroke-linejoin="round"/>
<path d="M10.7031 5.09473L10.7031 3.56662L9.20313 3.56662" stroke="#666A72" stroke-width="1.5" stroke-linecap="round" stroke-linejoin="round"/>
</svg>
