<svg width="14" height="14" viewBox="0 0 14 14" fill="none" xmlns="http://www.w3.org/2000/svg">
<path d="M3.32081 5.95558C3.36986 6.43604 3.75796 6.82429 4.23819 6.87553C4.52094 6.9057 4.81025 6.92981 5.10461 6.92981C5.39898 6.92981 5.68829 6.9057 5.97104 6.87553C6.45127 6.82429 6.83936 6.43604 6.88842 5.95558C6.91711 5.67463 6.9397 5.38718 6.9397 5.09473C6.9397 4.80227 6.91711 4.51483 6.88842 4.23387C6.83936 3.75341 6.45127 3.36517 5.97104 3.31392C5.68829 3.28375 5.39898 3.25964 5.10461 3.25964C4.81025 3.25964 4.52094 3.28375 4.23819 3.31392C3.75796 3.36517 3.36986 3.75341 3.32081 4.23387C3.29212 4.51483 3.26953 4.80227 3.26953 5.09473C3.26953 5.38718 3.29212 5.67463 3.32081 5.95558Z" fill="#0072FF" fill-opacity="0.3" stroke="#0072FF" stroke-width="1.5"/>
<path d="M10.0137 0.94165C10.3845 0.981598 10.752 1.02442 11.1159 1.06659C12.0754 1.1778 12.841 1.94289 12.9488 2.90277C12.9894 3.26431 13.0303 3.62945 13.0683 3.99788" stroke="#0072FF" stroke-width="1.5" stroke-linecap="round"/>
<path d="M10.0137 13.0562C10.3845 13.0162 10.752 12.9734 11.1159 12.9312C12.0754 12.82 12.841 12.0549 12.9488 11.095C12.9894 10.7335 13.0303 10.3684 13.0683 9.99992" stroke="#0072FF" stroke-width="1.5" stroke-linecap="round"/>
<path d="M4 0.94165C3.62915 0.981598 3.26164 1.02442 2.89776 1.06659C1.93827 1.1778 1.17267 1.94289 1.06491 2.90277C1.02432 3.26431 0.983393 3.62945 0.945352 3.99788" stroke="#0072FF" stroke-width="1.5" stroke-linecap="round"/>
<path d="M4 13.0562C3.62915 13.0162 3.26164 12.9734 2.89776 12.9312C1.93827 12.82 1.17267 12.0549 1.06491 11.095C1.02432 10.7335 0.983393 10.3684 0.945352 9.99992" stroke="#0072FF" stroke-width="1.5" stroke-linecap="round"/>
<path d="M3.60547 9.21228L3.60547 10.7404L5.10547 10.7404" stroke="#0072FF" stroke-width="1.5" stroke-linecap="round" stroke-linejoin="round"/>
<path d="M10.7031 10.7404L10.7031 9.21225L9.20313 9.21225" stroke="#0072FF" stroke-width="1.5" stroke-linecap="round" stroke-linejoin="round"/>
<path d="M10.7305 6.97632L9.23047 6.97632" stroke="#0072FF" stroke-width="1.5" stroke-linecap="round" stroke-linejoin="round"/>
<path d="M6.93945 10.7263L6.93945 9.22632" stroke="#0072FF" stroke-width="1.5" stroke-linecap="round" stroke-linejoin="round"/>
<path d="M10.7031 5.09473L10.7031 3.56662L9.20313 3.56662" stroke="#0072FF" stroke-width="1.5" stroke-linecap="round" stroke-linejoin="round"/>
</svg>
