<svg width="14" height="14" viewBox="0 0 14 14" fill="none" xmlns="http://www.w3.org/2000/svg">
<path d="M9.69191 13.0097C10.1703 12.9618 10.5415 12.5728 10.5711 12.0929C10.673 10.443 10.7272 8.83488 10.7272 6.99989C10.7272 5.1649 10.673 3.55677 10.5711 1.90687C10.5415 1.42698 10.1703 1.03799 9.69191 0.9901C6.94296 0.714918 4.53422 0.714918 1.78526 0.990101C1.30684 1.03799 0.935661 1.42698 0.906031 1.90687C0.804165 3.55677 0.75 5.1649 0.75 6.99989C0.75 8.83488 0.804165 10.443 0.906032 12.0929C0.935661 12.5728 1.30684 12.9618 1.78526 13.0097C4.53421 13.2849 6.94296 13.2849 9.69191 13.0097Z" fill="#DADADA" fill-opacity="0.5"/>
<path d="M9.69191 13.0097C10.1703 12.9618 10.5415 12.5728 10.5711 12.0929C10.673 10.443 10.7272 8.83488 10.7272 6.99989C10.7272 5.1649 10.673 3.55677 10.5711 1.90687C10.5415 1.42698 10.1703 1.03799 9.69191 0.9901C6.94296 0.714918 4.53422 0.714918 1.78526 0.990101C1.30684 1.03799 0.935661 1.42698 0.906031 1.90687C0.804165 3.55677 0.75 5.1649 0.75 6.99989C0.75 8.83488 0.804165 10.443 0.906032 12.0929C0.935661 12.5728 1.30684 12.9618 1.78526 13.0097C4.53421 13.2849 6.94296 13.2849 9.69191 13.0097Z" stroke="#666A72" stroke-width="1.5"/>
<path d="M10.7266 2.00964H12.1932C12.5344 2.00964 12.8636 2.17881 13.0044 2.48968C13.3633 3.28244 13.3101 4.03841 12.9609 5.20411C12.838 5.61407 12.4532 5.88559 12.0253 5.88559H10.7266V2.00964Z" fill="white"/>
<path d="M10.7266 2.00964H12.1932C12.5344 2.00964 12.8636 2.17881 13.0044 2.48968C13.3633 3.28244 13.3101 4.03841 12.9609 5.20411C12.838 5.61407 12.4532 5.88559 12.0253 5.88559H10.7266V2.00964Z" stroke="#666A72" stroke-width="1.5"/>
<path d="M10.7266 5.88562H12.1932C12.5344 5.88562 12.8636 6.05479 13.0044 6.36565C13.3633 7.15842 13.3101 7.91438 12.9609 9.08009C12.838 9.49004 12.4532 9.76156 12.0253 9.76156H10.7266V5.88562Z" fill="white"/>
<path d="M10.7266 5.88562H12.1932C12.5344 5.88562 12.8636 6.05479 13.0044 6.36565C13.3633 7.15842 13.3101 7.91438 12.9609 9.08009C12.838 9.49004 12.4532 9.76156 12.0253 9.76156H10.7266V5.88562Z" stroke="#666A72" stroke-width="1.5"/>
<rect x="3.55078" y="3.44043" width="4.37431" height="2.50998" rx="0.75" fill="white" stroke="#666A72" stroke-width="1.5"/>
</svg>
