<svg width="14" height="14" viewBox="0 0 14 14" fill="none" xmlns="http://www.w3.org/2000/svg">
<path d="M0.99986 6.15829C0.766571 6.42202 0.872422 6.78088 1.21555 6.85494C1.48423 6.91289 1.85353 6.97758 2.35103 7.03793C2.3392 7.43614 2.33198 7.89817 2.33198 8.43282C2.33198 9.85823 2.38326 10.7675 2.43657 11.3276C2.48547 11.8414 2.83406 12.2329 3.3404 12.3166C3.9986 12.4255 5.13753 12.5417 6.9998 12.5417C8.86203 12.5417 10.001 12.4255 10.6592 12.3166C11.1655 12.2329 11.5141 11.8414 11.563 11.3276C11.6163 10.7675 11.6676 9.85823 11.6676 8.43282C11.6676 7.89823 11.6604 7.4362 11.6486 7.03799C12.1462 6.97764 12.5156 6.91295 12.7844 6.85497C13.1276 6.78094 13.2334 6.42196 13.0001 6.15817C12.5906 5.69536 11.8293 4.90634 10.5009 3.73696C8.96268 2.38281 7.93126 1.79372 7.40685 1.54946C7.1461 1.428 6.85408 1.42802 6.59333 1.5495C6.069 1.79378 5.0377 2.38289 3.49924 3.73696C2.17056 4.90643 1.40923 5.69548 0.99986 6.15829Z" fill="#A6CFFF"/>
<path d="M9.03112 12.4864C9.03797 12.152 9.04232 11.7527 9.04232 11.2777C9.04232 10.3141 9.02444 9.66194 9.00399 9.23141C8.98098 8.7464 8.71781 8.34192 8.26882 8.26145C7.97324 8.20845 7.56211 8.16663 7.00065 8.16663C6.43919 8.16663 6.02806 8.20845 5.73248 8.26145C5.28349 8.34192 5.02032 8.7464 4.99731 9.23141C4.97686 9.66194 4.95898 10.3141 4.95898 11.2777C4.95898 11.7527 4.96333 12.152 4.97018 12.4864C5.52467 12.5199 6.19489 12.5416 7.00045 12.5416C7.80621 12.5416 8.47654 12.5199 9.03112 12.4864Z" fill="#0072FF"/>
</svg>
