<svg width="21" height="24" viewBox="0 0 21 24" fill="none" xmlns="http://www.w3.org/2000/svg">
<path d="M5.83241 9.24074C6.67256 8.40058 7.81206 7.92859 9.00022 7.92859C10.1884 7.92859 11.3279 8.40058 12.168 9.24074C13.0082 10.0809 13.4802 11.2204 13.4802 12.4086C13.4802 13.5557 13.7073 14.4281 14.0288 15.0866C14.263 15.5662 14.8079 15.755 15.2837 15.9968C16.3326 16.53 16.2042 17.9981 15.4675 18.5428C15.4675 18.5428 14.3619 19.5 9.00022 19.5C3.63856 19.5 2.53293 18.5428 2.53293 18.5428C1.79621 17.9981 1.66786 16.53 2.71676 15.9968C3.19257 15.755 3.73745 15.5662 3.97164 15.0866C4.29317 14.4281 4.52026 13.5557 4.52026 12.4086C4.52026 11.2204 4.99225 10.0809 5.83241 9.24074Z" fill="#666A72" fill-opacity="0.5" stroke="black" stroke-width="1.5" stroke-linecap="round" stroke-linejoin="round"/>
<path d="M7.41211 22.0175C7.7372 22.6236 8.37686 23.0358 9.1128 23.0358C9.84873 23.0358 10.4884 22.6236 10.8135 22.0175" stroke="black" stroke-width="1.5" stroke-linecap="round" stroke-linejoin="round"/>
<circle cx="15" cy="6" r="6" fill="#FD711A"/>
</svg>
