<svg width="14" height="14" viewBox="0 0 14 14" fill="none" xmlns="http://www.w3.org/2000/svg">
<path d="M1.38867 6.57003C1.47225 3.81332 2.87465 0.75 6.99998 0.75C11.1178 0.75 12.5226 3.80212 12.6108 6.55489" stroke="#666A72" stroke-width="1.5" stroke-linecap="round"/>
<path d="M1 8.24996C1 5.96425 2.52381 5.39282 3.28571 5.39282C4.65714 5.39282 5 6.53568 5 7.10711V9.39282C5 10.7643 3.85714 11.1071 3.28571 11.1071C2.52381 11.1071 1 10.5357 1 8.24996Z" fill="#DADADA" fill-opacity="0.3" stroke="#666A72" stroke-width="1.5"/>
<path d="M13 8.24996C13 5.96425 11.4762 5.39282 10.7143 5.39282C9.34286 5.39282 9 6.53568 9 7.10711V9.39282C9 10.7643 10.1429 11.1071 10.7143 11.1071C11.4762 11.1071 13 10.5357 13 8.24996Z" fill="#DADADA" fill-opacity="0.3" stroke="#666A72" stroke-width="1.5"/>
<path d="M12.6719 9.85938C12.6719 9.85938 12.75 11.6562 11.8281 12.4375C10.9062 13.2188 8.57812 13.2031 8.57812 13.2031" stroke="#666A72" stroke-width="1.5" stroke-linecap="round"/>
</svg>
