<svg width="14" height="14" viewBox="0 0 14 14" fill="none" xmlns="http://www.w3.org/2000/svg">
<path d="M6.63 0.901701C4.58498 1.76092 2.57304 2.95535 1.14315 4.48501C0.86179 4.78601 1.08798 5.25 1.5 5.25H12.5C12.912 5.25 13.1382 4.78601 12.8568 4.48501C11.427 2.95535 9.41502 1.76092 7.37 0.901701C7.13327 0.802238 6.86673 0.802238 6.63 0.901701Z" fill="#DADADA" fill-opacity="0.5" stroke="#666A72" stroke-width="1.5" stroke-linecap="round" stroke-linejoin="round"/>
<path d="M3 10.25C1.83754 10.25 1.27566 11.1509 1.08165 12.2545C0.986029 12.7984 1.44772 13.25 2 13.25H12C12.5523 13.25 13.014 12.7984 12.9183 12.2545C12.7243 11.1509 12.1625 10.25 11 10.25H3Z" fill="#DADADA" fill-opacity="0.5" stroke="#666A72" stroke-width="1.5" stroke-linecap="round" stroke-linejoin="round"/>
<path d="M3 10.25V5.25" stroke="#666A72" stroke-width="1.5" stroke-linecap="round" stroke-linejoin="round"/>
<path d="M7 10.25V5.25" stroke="#666A72" stroke-width="1.5" stroke-linecap="round" stroke-linejoin="round"/>
<path d="M11 10.25V5.25" stroke="#666A72" stroke-width="1.5" stroke-linecap="round" stroke-linejoin="round"/>
</svg>
