<svg width="14" height="14" viewBox="0 0 14 14" fill="none" xmlns="http://www.w3.org/2000/svg">
<path d="M11.8569 7.86607C11.8255 7.82644 11.8085 7.77733 11.8086 7.72679V6.27321C11.8085 6.22267 11.8255 6.17356 11.8569 6.13393L12.5274 5.29375C12.648 5.14274 12.7203 4.95886 12.7348 4.76612C12.7493 4.57338 12.7053 4.38075 12.6086 4.21339L12.2176 3.53661C12.1211 3.36911 11.9764 3.2346 11.8023 3.15065C11.6282 3.06671 11.4328 3.03723 11.2417 3.06607L10.1792 3.22768C10.1289 3.23473 10.0778 3.225 10.0336 3.2L8.77471 2.47321C8.73036 2.44656 8.69636 2.40563 8.67828 2.35714L8.28632 1.36071C8.21613 1.18096 8.09339 1.02654 7.93412 0.917595C7.77484 0.808652 7.58643 0.750246 7.39346 0.75H6.60953C6.41656 0.750246 6.22815 0.808652 6.06887 0.917595C5.9096 1.02654 5.78686 1.18096 5.71667 1.36071L5.32292 2.35714C5.30417 2.40431 5.27024 2.44389 5.2265 2.46964L3.96489 3.2C3.92077 3.22506 3.86959 3.2348 3.81935 3.22768L2.75953 3.06607C2.56841 3.03723 2.37304 3.06671 2.19893 3.15065C2.02483 3.2346 1.88009 3.36911 1.78364 3.53661L1.39257 4.21339C1.29586 4.38075 1.25188 4.57338 1.26638 4.76612C1.28087 4.95886 1.35317 5.14274 1.47382 5.29375L2.14435 6.13393C2.17573 6.17356 2.19273 6.22267 2.19257 6.27321V7.72679C2.19273 7.77733 2.17573 7.82644 2.14435 7.86607L1.47382 8.70625C1.35317 8.85726 1.28087 9.04114 1.26638 9.23388C1.25188 9.42662 1.29586 9.61926 1.39257 9.78661L1.78364 10.4634C1.88009 10.6309 2.02483 10.7654 2.19893 10.8493C2.37304 10.9333 2.56841 10.9628 2.75953 10.9339L3.82203 10.7723C3.87227 10.7652 3.92345 10.7749 3.96757 10.8L5.2265 11.5268C5.27024 11.5525 5.30417 11.5921 5.32292 11.6393L5.71489 12.6393C5.78508 12.819 5.90781 12.9735 6.06709 13.0824C6.22636 13.1913 6.41478 13.2498 6.60775 13.25H7.38989C7.58286 13.2498 7.77127 13.1913 7.93055 13.0824C8.08982 12.9735 8.21256 12.819 8.28275 12.6393L8.67471 11.6393C8.69347 11.5921 8.7274 11.5525 8.77114 11.5268L10.0301 10.8C10.0742 10.775 10.1254 10.7653 10.1756 10.7723L11.2381 10.9339C11.4292 10.9628 11.6246 10.9333 11.7987 10.8493C11.9728 10.7654 12.1175 10.6309 12.214 10.4634L12.6051 9.78661C12.7018 9.61926 12.7458 9.42662 12.7313 9.23388C12.7168 9.04114 12.6445 8.85726 12.5238 8.70625L11.8569 7.86607ZM7.0006 9.00893C6.60327 9.00893 6.21487 8.89111 5.8845 8.67036C5.55414 8.44962 5.29665 8.13587 5.14459 7.76878C4.99254 7.4017 4.95276 6.99777 5.03028 6.60808C5.10779 6.21838 5.29912 5.86043 5.58008 5.57947C5.86103 5.29852 6.21899 5.10719 6.60868 5.02967C6.99837 4.95216 7.4023 4.99194 7.76939 5.14399C8.13647 5.29604 8.45022 5.55353 8.67097 5.8839C8.89171 6.21427 9.00953 6.60267 9.00953 7C9.00953 7.5328 8.79788 8.04378 8.42113 8.42053C8.04438 8.79727 7.5334 9.00893 7.0006 9.00893Z" fill="#DADADA" fill-opacity="0.5" stroke="#666A72" stroke-width="1.5"/>
</svg>
