<svg width="14" height="14" viewBox="0 0 14 14" fill="none" xmlns="http://www.w3.org/2000/svg">
<path d="M1.66776 11.3031C1.2796 9.63059 1.10048 7.72212 1.03341 6.49909C1.00317 5.94763 1.44772 5.5 2 5.5H12C12.5523 5.5 12.9968 5.94763 12.9666 6.49909C12.8995 7.72212 12.7204 9.63059 12.3322 11.3031C12.1524 12.0781 11.5818 12.6683 10.7944 12.7825C9.98308 12.9002 8.75104 13 7 13C5.24896 13 4.01692 12.9002 3.20559 12.7825C2.41818 12.6683 1.84763 12.0781 1.66776 11.3031Z" fill="#DADADA" fill-opacity="0.5" stroke="#666A72" stroke-width="1.5" stroke-linecap="round" stroke-linejoin="round"/>
<path d="M3.5 5.5V4.5C3.5 2.567 5.067 1 7 1V1C8.933 1 10.5 2.567 10.5 4.5V5.5" stroke="#666A72" stroke-width="1.5" stroke-linecap="round" stroke-linejoin="round"/>
<path d="M5 8.5V10M9 8.5V10" stroke="#666A72" stroke-width="1.5" stroke-linecap="round" stroke-linejoin="round"/>
</svg>
