<svg width="14" height="14" viewBox="0 0 14 14" fill="none" xmlns="http://www.w3.org/2000/svg">
<path d="M1.75179 2.42268C1.2204 5.39955 1.08102 9.65375 1.38503 12.4119C1.43859 12.8978 1.85745 13.25 2.34629 13.25H11.652C12.1409 13.25 12.5597 12.8978 12.6133 12.4119C12.9173 9.65375 12.7779 5.39955 12.2465 2.42268C12.1167 1.69555 11.5494 1.14515 10.8181 1.04162C9.78279 0.895044 8.31845 0.75 6.99916 0.75C5.67987 0.75 4.21554 0.895044 3.18023 1.04162C2.4489 1.14515 1.88159 1.69555 1.75179 2.42268Z" fill="#0072FF" fill-opacity="0.5" stroke="#0072FF" stroke-width="1.5" stroke-linecap="round" stroke-linejoin="round"/>
<path d="M8.5 7.5H9.5" stroke="#0072FF" stroke-width="1.5" stroke-linecap="round" stroke-linejoin="round"/>
<path d="M5.5 11.5V13.25H8.5V11.5C8.5 10.6716 7.82843 10 7 10C6.17157 10 5.5 10.6716 5.5 11.5Z" fill="white" stroke="#0072FF" stroke-width="1.5" stroke-linecap="round" stroke-linejoin="round"/>
<path d="M4.5 4.5H5.5" stroke="#0072FF" stroke-width="1.5" stroke-linecap="round" stroke-linejoin="round"/>
<path d="M8.5 4.5H9.5" stroke="#0072FF" stroke-width="1.5" stroke-linecap="round" stroke-linejoin="round"/>
<path d="M4.5 7.5H5.5" stroke="#0072FF" stroke-width="1.5" stroke-linecap="round" stroke-linejoin="round"/>
</svg>
