<svg width="14" height="14" viewBox="0 0 14 14" fill="none" xmlns="http://www.w3.org/2000/svg">
<path d="M1 10.25C1 8.4152 1.77928 6.56092 2.4442 5.26802C2.77245 4.62977 3.44293 4.25 4.16065 4.25H9.83935C10.5571 4.25 11.2276 4.62977 11.5558 5.26802C12.2207 6.56092 13 8.4152 13 10.25C13 11.75 12.0272 12.7704 10.5 13.0102C9.61104 13.1498 8.5 13.25 7 13.25C5.5 13.25 4.38896 13.1498 3.5 13.0102C1.97277 12.7704 1 11.75 1 10.25Z" fill="#DADADA" fill-opacity="0.5" stroke="#666A72" stroke-width="1.5"/>
<path d="M6 7.75H8" stroke="#666A72" stroke-width="1.5" stroke-linecap="round" stroke-linejoin="round"/>
<path d="M4.5 4.2593V3.25C4.5 1.86929 5.61929 0.75 7 0.75V0.75C8.38071 0.75 9.5 1.86929 9.5 3.25V4.2593" stroke="#666A72" stroke-width="1.5"/>
</svg>
