<svg width="14" height="14" viewBox="0 0 14 14" fill="none" xmlns="http://www.w3.org/2000/svg">
<path d="M9.39692 7.00869C10.7218 7.00869 11.7958 5.93467 11.7958 4.60981C11.7958 3.28495 10.7218 2.21094 9.39692 2.21094C8.07206 2.21094 6.99805 3.28495 6.99805 4.60981C6.99805 5.93467 8.07206 7.00869 9.39692 7.00869Z" fill="#DADADA" fill-opacity="0.5"/>
<path d="M9.39648 7.0088C10.7213 7.0088 11.7954 5.93478 11.7954 4.60992C11.7954 3.58506 11.1527 2.71031 10.2483 2.3667" stroke="#666A72" stroke-width="1.5" stroke-linecap="round" stroke-linejoin="round"/>
<path d="M12.674 10.3786C13.8475 11.1601 13.0551 12.6674 11.6453 12.6674H6.35086C4.94102 12.6674 4.14867 11.1601 5.32208 10.3786C6.3746 9.67759 7.63862 9.26904 8.99806 9.26904C10.3575 9.26904 11.6215 9.67759 12.674 10.3786Z" fill="#DADADA" fill-opacity="0.5"/>
<path d="M5.36012 6.53323C6.79626 6.53323 7.96048 5.36901 7.96048 3.93288C7.96048 2.49674 6.79626 1.33252 5.36012 1.33252C3.92398 1.33252 2.75977 2.49674 2.75977 3.93288C2.75977 5.36901 3.92398 6.53323 5.36012 6.53323Z" fill="#DADADA" fill-opacity="0.5" stroke="#666A72" stroke-width="1.5" stroke-linecap="round" stroke-linejoin="round"/>
<path d="M9.34316 10.1866C10.6151 11.0338 9.75623 12.6677 8.22797 12.6677H2.4889C0.960637 12.6677 0.101742 11.0338 1.37371 10.1866C2.51463 9.42674 3.88481 8.98389 5.35843 8.98389C6.83205 8.98389 8.20224 9.42674 9.34316 10.1866Z" fill="#DADADA" fill-opacity="0.5" stroke="#666A72" stroke-width="1.5"/>
<path d="M8.00781 12.6676H11.6454C13.0552 12.6676 13.8476 11.1603 12.6742 10.3787C12.3501 10.1629 12.0061 9.97485 11.6454 9.81787" stroke="#666A72" stroke-width="1.5" stroke-linecap="round"/>
</svg>
