<svg width="14" height="14" viewBox="0 0 14 14" fill="none" xmlns="http://www.w3.org/2000/svg">
<path d="M6.98338 5C5.10731 5 3.32636 6.34957 3.55037 8.21221C3.56777 8.35692 3.58854 8.50874 3.61268 8.67024C3.68449 9.15083 4.10356 9.5 4.58948 9.5H5.14493L5.55018 12.0159C5.66474 12.7271 6.27859 13.25 6.99896 13.25C7.71933 13.25 8.33319 12.7271 8.44774 12.0159L8.85299 9.5H9.41559C9.89834 9.5 10.3162 9.15555 10.3898 8.67845C10.4134 8.52601 10.4336 8.38204 10.4505 8.24401C10.6803 6.36808 8.87332 5 6.98338 5Z" fill="#DADADA" fill-opacity="0.5" stroke="#666A72" stroke-width="1.5" stroke-linejoin="round"/>
<path d="M7 4.75C8.10457 4.75 9 3.85457 9 2.75C9 1.64543 8.10457 0.75 7 0.75C5.89543 0.75 5 1.64543 5 2.75C5 3.85457 5.89543 4.75 7 4.75Z" fill="#DADADA" fill-opacity="0.5" stroke="#666A72" stroke-width="1.5" stroke-linecap="round" stroke-linejoin="round"/>
</svg>
